<?xml version="1.0" encoding="UTF-8"?>
<svg width="492px" height="492px" viewBox="0 0 492 492" version="1.1" xmlns="http://www.w3.org/2000/svg" xmlns:xlink="http://www.w3.org/1999/xlink">
    <!-- Generator: Sketch 55.2 (78181) - https://sketchapp.com -->
    <title>External Link Icon</title>
    <desc>Created with Sketch.</desc>
    <g id="External-Link-Icon" stroke="none" stroke-width="1" fill="none" fill-rule="evenodd">
        <path d="M408.992133,151.992133 L181.162007,379.822259 L109.037116,307.697368 L336.867242,79.8672417 L277.485281,20.4852814 C272.79899,15.7989899 272.79899,8.20101013 277.485281,3.51471863 C279.735718,1.26428208 282.787965,5.84633746e-16 285.970563,0 L480,0 C486.627417,-1.21743675e-15 492,5.372583 492,12 L492,206.029437 C492,212.656854 486.627417,218.029437 480,218.029437 C476.817402,218.029437 473.765155,216.765155 471.514719,214.514719 L408.992133,151.992133 Z" id="Arrow" fill="#222222"></path>
        <path d="M256,42 L256,100 L70,100 C63.372583,100 58,105.372583 58,112 L58,422 C58,428.627417 63.372583,434 70,434 L380,434 C386.627417,434 392,428.627417 392,422 L392,238 L450,238 L450,462 C450,478.568542 436.568542,492 420,492 L30,492 C13.4314575,492 2.02906125e-15,478.568542 0,462 L0,72 C-2.02906125e-15,55.4314575 13.4314575,42 30,42 L256,42 Z" id="Border" fill="#222222"></path>
    </g>
</svg>